<?xml version="1.0" encoding="UTF-8"?><svg id="Capa_1" xmlns="http://www.w3.org/2000/svg" viewBox="0 0 270.53 59.66"><defs><style>.cls-1{fill:#4ca92c;}</style></defs><g><path class="cls-1" d="M220.64,47.04c-2.28,2.11-4.99,3.99-8.99,3.99-6.04,0-10.42-4.75-10.42-11.3v-.15c0-6.26,4.38-11.16,9.99-11.16,4.2,0,6.8,1.93,8.92,4.1l6.17-6.64c-3.91-4.22-8.56-6.1-15.01-6.1-5.59,0-10.72,2.08-14.44,5.87-3.64,3.7-5.64,8.7-5.64,14.07v.15c0,5.35,2.01,10.32,5.65,14,3.7,3.73,8.77,5.79,14.28,5.79,7.9,0,12.09-3.17,15.37-6.68l-5.87-5.94Z"/><path class="cls-1" d="M264.66,25.55c-3.84-3.72-9.09-5.77-14.8-5.77s-11.02,2.08-14.9,5.85c-3.82,3.72-5.92,8.72-5.92,14.09v.15c0,5.36,2.09,10.34,5.88,14.02,3.83,3.73,9.09,5.77,14.8,5.77s11.02-2.08,14.9-5.84c3.82-3.72,5.92-8.72,5.92-14.1v-.15c0-5.36-2.09-10.34-5.87-14.02Zm-4.15,14.31c0,6.46-4.48,11.16-10.64,11.16s-10.79-4.97-10.79-11.3v-.15c0-6.46,4.47-11.16,10.64-11.16s10.79,4.97,10.79,11.3v.15Z"/></g><path class="cls-1" d="M54.37,21.24V58.53c0,.62-.5,1.12-1.12,1.12H19.15c-.62,0-1.12-.51-1.12-1.13V28.87c0-.42,.2-.81,.54-1.05l7.82-5.64c.35-.25,.8-.29,1.17-.09,.39,.19,.62,.58,.62,1.01v26.11s16.04,0,16.04,0V25.45S27.15,12.37,27.15,12.37L10.15,25.44V58.53c0,.62-.51,1.12-1.13,1.12H1.12C.5,59.65,0,59.14,0,58.53V21.24c0-.5,.24-.98,.63-1.27L26.16,.34c.58-.45,1.38-.45,1.96,0l25.62,19.62c.4,.31,.63,.79,.63,1.28Z"/><path class="cls-1" d="M71.07,9.39V59.66h10.32V9.39h-10.32Z"/><path class="cls-1" d="M111.74,20.66c-5.6,0-8.76,3.09-11.11,6.11l-.85,1.09v-6.47h-10.18V59.66h10.18v-21.4c0-5.37,2.71-8.45,7.42-8.45s7.2,3,7.2,8.45v21.4h10.18v-24.92c0-8.82-4.8-14.09-12.84-14.09Z"/><path class="cls-1" d="M157.61,21.09l-8.74,25.95-.45,1.34-.45-1.34-8.67-25.94h-10.74l15.07,38.57h9.45l15.07-38.57h-10.53Z"/><g><path class="cls-1" d="M174.53,21.39V59.66h10.17V21.39h-10.17Z"/><path class="cls-1" d="M186.25,10.21c0,1.78-.59,3.21-1.8,4.38-1.19,1.15-2.82,1.73-4.83,1.73s-3.58-.57-4.8-1.7c-1.23-1.14-1.82-2.51-1.82-4.19s.6-3.05,1.82-4.19c1.22-1.13,2.83-1.7,4.8-1.7s3.59,.54,4.81,1.6c1.22,1.06,1.82,2.39,1.82,4.07Z"/></g></svg>